<svg id="Layer_1" data-name="Layer 1" xmlns="http://www.w3.org/2000/svg" xmlns:xlink="http://www.w3.org/1999/xlink" viewBox="0 0 19.29 24"><defs><style>.cls-1{fill:url(#linear-gradient);}.cls-2{fill:#1f0256;}</style><linearGradient id="linear-gradient" x1="16.41" y1="27.76" x2="-7.88" y2="3.46" gradientTransform="matrix(1, 0, 0, -1, 0, 26)" gradientUnits="userSpaceOnUse"><stop offset="0" stop-color="#17ccfc"/><stop offset="0.5" stop-color="#5d31ff"/><stop offset="1" stop-color="#f35aff"/></linearGradient></defs><path class="cls-1" d="M19.12,3.16,16.24,6a.57.57,0,0,1-.34.16.59.59,0,0,1-.37-.07,6.82,6.82,0,0,0-3.76-1A6.9,6.9,0,0,0,8.08,6.37,6.62,6.62,0,0,0,6.37,8.08a6.9,6.9,0,0,0-.25,7.46.51.51,0,0,1,.08.36.52.52,0,0,1-.16.33L3.16,19.12a.74.74,0,0,1-.21.13.47.47,0,0,1-.24,0,.48.48,0,0,1-.23-.07.46.46,0,0,1-.18-.16A12,12,0,0,1,2.7,4.41,12.56,12.56,0,0,1,4.41,2.7a12,12,0,0,1,14.64-.41.58.58,0,0,1,.16.19.48.48,0,0,1,.07.23.52.52,0,0,1,0,.25A.86.86,0,0,1,19.12,3.16Z" transform="translate(0 0)"/><path class="cls-2" d="M19.11,20.83,16.23,18a.54.54,0,0,0-.33-.16.59.59,0,0,0-.37.07,6.82,6.82,0,0,1-7.08,0,.57.57,0,0,0-.36-.07.54.54,0,0,0-.34.16L4.87,20.83a.6.6,0,0,0-.14.21.61.61,0,0,0,0,.48.56.56,0,0,0,.16.18,12,12,0,0,0,14.12,0,.46.46,0,0,0,.16-.18.62.62,0,0,0,.08-.24.64.64,0,0,0,0-.24.6.6,0,0,0-.14-.21Z" transform="translate(0 0)"/><path class="cls-2" d="M12,15.42A3.43,3.43,0,1,0,8.57,12,3.42,3.42,0,0,0,12,15.42Z" transform="translate(0 0)"/></svg>